# xmcd
#
# Track frame offsets:
#	150
#	16232
#	31898
#	47011
#	66855
#	79204
#	93800
#	107539
#	124093
#	141835
#	156039
#	172471
#
# Disc length: 2494 seconds
#
# Revision: 0
# Processed by: cddbd v1.5.2PL0 Copyright (c) Steve Scherf et al.
# Submitted via: dBpowerAMP V4.0
#
DISCID=9809bc0c
DTITLE=Rachael Hester - Only Time Will Tell
DYEAR=2010
DGENRE=Country
TTITLE0=I'm Going Back To Tennessee
TTITLE1=Command The Wind
TTITLE2=Don't Think Of Me
TTITLE3=Only Time Will Tell
TTITLE4=Somewhere Down The Road
TTITLE5=I Don't Dream About You Anymore
TTITLE6=I'm Having Your Baby
TTITLE7=Enchantment To The View
TTITLE8=All I'll Ever Need From You
TTITLE9=Lowdown Fiddle Man
TTITLE10=That Horse'll Kill You
TTITLE11=One More Song
EXTD=She's an up-and-comer in Nashville
EXTT0=
EXTT1=
EXTT2=
EXTT3=
EXTT4=
EXTT5=
EXTT6=
EXTT7=
EXTT8=
EXTT9=
EXTT10=
EXTT11=
PLAYORDER=
